<?xml version="1.0" standalone="no"?>
<!DOCTYPE svg PUBLIC "-//W3C//DTD SVG 20010904//EN"
 "http://www.w3.org/TR/2001/REC-SVG-20010904/DTD/svg10.dtd">
<svg version="1.0" xmlns="http://www.w3.org/2000/svg"
 width="754.000000pt" height="68.000000pt" viewBox="0 0 754.000000 68.000000"
 preserveAspectRatio="xMidYMid meet">

<g transform="translate(0.000000,68.000000) scale(0.100000,-0.100000)"
fill="#000000" stroke="none">
<path d="M1260 320 l0 -270 128 0 c145 0 181 11 219 69 22 32 23 44 23 201 0
157 -1 169 -23 201 -38 58 -74 69 -219 69 l-128 0 0 -270z m264 216 c61 -25
66 -42 66 -218 l0 -158 -29 -32 -29 -33 -116 -3 -116 -4 0 231 0 231 95 0 c59
0 108 -5 129 -14z"/>
<path d="M2657 580 c-57 -15 -90 -35 -131 -80 -52 -57 -69 -103 -69 -180 -1
-147 113 -260 260 -260 106 0 192 51 237 142 66 133 4 308 -129 364 -44 18
-123 25 -168 14z m162 -59 c152 -78 163 -293 20 -388 -47 -31 -136 -42 -191
-24 -51 17 -113 74 -133 123 -46 113 0 234 110 291 44 23 146 22 194 -2z"/>
<path d="M2682 357 l-32 -33 35 -34 35 -34 35 34 35 34 -32 33 c-18 18 -35 33
-38 33 -3 0 -20 -15 -38 -33z"/>
<path d="M3800 320 l0 -272 139 4 c152 3 168 9 215 72 19 25 21 41 21 196 0
155 -2 171 -21 196 -47 63 -63 69 -215 72 l-139 4 0 -272z m249 224 c17 -4 42
-18 56 -32 25 -24 25 -27 25 -192 0 -167 0 -167 -26 -193 -32 -32 -65 -39
-174 -35 l-85 3 -3 215 c-1 118 0 220 2 227 6 14 146 18 205 7z"/>
<path d="M5813 580 c-83 -17 -166 -92 -194 -177 -15 -47 -7 -149 16 -197 42
-87 122 -138 228 -144 58 -4 75 0 122 22 168 83 204 295 73 426 -59 60 -158
88 -245 70z m154 -57 c84 -39 144 -147 128 -231 -30 -158 -186 -237 -326 -164
-156 81 -156 309 -1 392 48 25 150 27 199 3z"/>
<path d="M5840 355 l-34 -35 35 -35 35 -35 34 35 34 35 -35 35 -35 35 -34 -35z"/>
<path d="M6630 320 l0 -272 139 4 c122 3 143 6 168 24 54 40 63 73 63 244 0
171 -9 204 -63 244 -25 18 -46 21 -168 24 l-139 4 0 -272z m270 212 c56 -27
61 -47 58 -224 -3 -157 -3 -158 -31 -185 -26 -27 -32 -28 -142 -31 l-115 -4 0
231 0 231 98 0 c72 0 106 -4 132 -18z"/>
<path d="M110 315 c0 -258 1 -265 20 -265 19 0 20 7 20 235 0 129 3 235 7 235
4 0 58 -51 120 -112 l113 -113 113 113 c62 61 116 112 120 112 4 0 7 -106 7
-235 0 -228 1 -235 20 -235 19 0 20 7 20 265 l0 265 -27 0 c-22 0 -52 -24
-140 -112 l-113 -113 -113 113 c-88 88 -118 112 -140 112 l-27 0 0 -265z"/>
<path d="M850 328 c-52 -138 -97 -258 -98 -265 -3 -10 3 -14 19 -11 19 3 34
34 107 230 48 125 88 225 91 223 2 -3 43 -105 91 -228 73 -188 90 -222 108
-225 12 -2 22 -1 22 2 0 3 -36 99 -81 213 -44 115 -90 232 -101 261 -15 41
-24 52 -41 52 -19 0 -33 -29 -117 -252z"/>
<path d="M1710 315 l0 -265 185 0 c178 0 185 1 185 20 0 19 -7 20 -165 20
l-165 0 0 225 0 225 165 0 c158 0 165 1 165 20 0 19 -7 20 -185 20 l-185 0 0
-265z"/>
<path d="M3060 315 c0 -258 1 -265 20 -265 19 0 20 7 20 245 l0 245 165 0
c158 0 165 1 165 20 0 19 -7 20 -185 20 l-185 0 0 -265z"/>
<path d="M4275 550 l-29 -30 35 -35 35 -35 34 35 34 35 -29 30 c-36 37 -44 37
-80 0z"/>
<path d="M4561 327 c-52 -138 -97 -258 -99 -265 -3 -10 2 -13 18 -10 20 3 34
32 109 230 47 125 88 224 91 222 2 -3 43 -105 91 -227 72 -186 89 -223 107
-225 12 -2 22 -1 22 3 0 4 -153 402 -197 513 -3 6 -15 12 -27 12 -18 0 -33
-31 -115 -253z"/>
<path d="M4980 315 c0 -258 1 -265 20 -265 19 0 20 7 20 237 l0 238 117 -117
117 -118 -34 -35 -34 -35 35 -35 35 -35 34 35 34 35 -34 35 -34 35 114 115
115 115 5 -232 c5 -225 6 -233 25 -233 19 0 20 8 23 263 l2 262 -27 0 c-23 0
-52 -23 -143 -115 l-115 -115 -115 115 c-78 78 -122 115 -138 115 l-22 0 0
-265z"/>
<path d="M6210 315 c0 -258 1 -265 20 -265 19 0 20 7 20 236 l0 236 128 -122
127 -121 5 -112 c5 -104 6 -112 25 -112 19 0 20 8 23 263 l2 262 -25 0 -24 0
-3 -122 -3 -123 -126 123 c-82 79 -134 122 -148 122 -21 0 -21 -1 -21 -265z"/>
<path d="M7167 566 c-46 -17 -64 -32 -83 -67 -28 -55 -7 -145 40 -172 11 -6
67 -14 123 -17 90 -5 105 -8 127 -29 50 -47 42 -137 -15 -166 -39 -20 -177
-20 -206 0 -12 8 -27 31 -33 50 -8 25 -17 35 -32 35 -18 0 -20 -4 -14 -32 17
-85 62 -113 181 -113 76 0 96 3 126 23 91 56 90 189 0 249 -29 20 -47 23 -123
23 -49 0 -98 5 -108 10 -25 14 -43 80 -31 113 18 46 47 57 147 57 100 0 113
-7 135 -68 7 -22 17 -32 31 -32 40 0 5 92 -48 127 -35 22 -166 28 -217 9z"/>
<path d="M1830 355 l-34 -35 35 -35 35 -35 34 35 34 35 -35 35 -35 35 -34 -35z"/>
<path d="M3180 355 l-34 -35 35 -35 35 -35 34 35 34 35 -35 35 -35 35 -34 -35z"/>
<path d="M4290 215 l0 -155 25 0 25 0 0 155 0 155 -25 0 -25 0 0 -155z"/>
<path d="M355 250 l-29 -30 32 -33 32 -32 32 32 32 33 -29 30 c-16 16 -32 30
-35 30 -3 0 -19 -14 -35 -30z"/>
<path d="M930 215 l-34 -35 35 -35 35 -35 33 34 34 35 -27 36 c-15 19 -30 35
-35 35 -4 0 -22 -16 -41 -35z"/>
<path d="M4642 217 l-32 -33 35 -34 35 -34 35 34 35 34 -32 33 c-18 18 -35 33
-38 33 -3 0 -20 -15 -38 -33z"/>
</g>
</svg>
